<?xml version="1.0" standalone="no"?><!DOCTYPE svg PUBLIC "-//W3C//DTD SVG 1.1//EN" "http://www.w3.org/Graphics/SVG/1.1/DTD/svg11.dtd"><svg t="1578987942488" class="icon" viewBox="0 0 1024 1024" version="1.1" xmlns="http://www.w3.org/2000/svg" p-id="7640" xmlns:xlink="http://www.w3.org/1999/xlink" width="200" height="200"><defs><style type="text/css"></style></defs><path d="M352 968c-53.016 0-96-42.984-96-96s42.984-96 96-96 96 42.984 96 96-42.984 96-96 96z m0-48a48 48 0 1 0 0-96 48 48 0 0 0 0 96z m472 48c-53.016 0-96-42.984-96-96s42.984-96 96-96 96 42.984 96 96-42.984 96-96 96z m0-48a48 48 0 1 0 0-96 48 48 0 0 0 0 96zM600 320a16 16 0 0 1 16 16v288a16 16 0 1 1-32 0V336a16 16 0 0 1 16-16z m-177.744 1.68a16 16 0 0 1 17.584 14.232l30.104 286.424a16 16 0 0 1-31.824 3.344l-30.104-286.424a16 16 0 0 1 14.24-17.584z m355.104 0a16 16 0 0 1 14.24 17.576L761.496 625.68a16 16 0 1 1-31.824-3.344l30.104-286.424a16 16 0 0 1 17.584-14.24zM47.872 100a24 24 0 1 1 0-48h76.2A104 104 0 0 1 227.28 143.28l66.8 541.696a8 8 0 0 0 7.936 7.024h580.864a8 8 0 0 0 7.96-7.2l38.04-376.992a40 40 0 0 0-35.784-43.816c-0.888-0.088-190.4-0.16-568.528-0.2a24 24 0 1 1 0-48h564.512c59.344 0 92.432 48.48 87.552 96.832l-38.032 377a56 56 0 0 1-55.72 50.376H302.024a56 56 0 0 1-55.584-49.144l-66.792-541.712A56 56 0 0 0 124.08 100H47.872z" p-id="7641" fill="#d81e06"></path></svg>